<?xml version="1.0" encoding="utf-8"?>
<!-- Generator: Adobe Illustrator 22.0.0, SVG Export Plug-In . SVG Version: 6.00 Build 0)  -->
<svg version="1.1" id="Layer_1" xmlns="http://www.w3.org/2000/svg" xmlns:xlink="http://www.w3.org/1999/xlink" x="0px" y="0px"
	 viewBox="0 0 19.5 23" style="enable-background:new 0 0 19.5 23;" xml:space="preserve">
<style type="text/css">
	.st0{fill:none;stroke:#58595B;stroke-width:1.4173;stroke-miterlimit:10;}
	.st1{fill:#8F653A;}
	.st2{clip-path:url(#SVGID_4_);}
	.st3{fill:none;}
	.st4{opacity:0.2;fill:#381B12;}
	.st5{opacity:0.5;fill:#4F231C;}
	.st6{opacity:0.2;fill:#472214;}
	.st7{opacity:0.2;}
	.st8{fill:#AF0061;}
	.st9{fill:#E6E6E6;}
	.st10{opacity:0.65;}
	.st11{fill:#AF0061;stroke:#FFFFFF;stroke-miterlimit:10;}
	.st12{fill:#FFFFFF;}
	.st13{fill:#F88D2B;}
	.st14{fill:#381B12;}
	.st15{fill:none;stroke:#58595B;stroke-miterlimit:10;}
	.st16{fill:none;stroke:#58595B;stroke-width:0.8889;stroke-miterlimit:10;}
	.st17{fill:#5F73B6;}
	.st18{fill:#FFFFFF;stroke:#FFFFFF;stroke-miterlimit:10;}
	.st19{fill:none;stroke:#FFFFFF;stroke-miterlimit:10;}
	.st20{fill:none;stroke:#333333;stroke-width:0.9921;stroke-miterlimit:10;}
	.st21{fill:none;stroke:#FFFFFF;stroke-width:0.8892;stroke-miterlimit:10;}
	.st22{opacity:0.95;}
	.st23{fill:none;stroke:#FFFFFF;stroke-width:0.9921;stroke-miterlimit:10;}
	.st24{clip-path:url(#SVGID_66_);}
	.st25{fill:#EFEFF0;}
	.st26{fill:#808080;}
	.st27{clip-path:url(#SVGID_74_);}
	.st28{fill:#F7F7F7;}
	.st29{fill:#325A9B;}
	.st30{clip-path:url(#SVGID_76_);}
	.st31{clip-path:url(#SVGID_78_);}
	.st32{clip-path:url(#SVGID_80_);}
	.st33{opacity:0.2;fill:#AF0061;}
	.st34{opacity:0.2;fill:#F88D2B;}
	.st35{clip-path:url(#SVGID_90_);}
	.st36{opacity:0.8;}
	.st37{fill:none;stroke:#FFFFFF;stroke-width:1.4173;stroke-miterlimit:10;}
	.st38{fill:none;stroke:#FFFFFF;stroke-width:1.4173;stroke-miterlimit:10;stroke-dasharray:5.7578,5.7578;}
	.st39{fill:none;stroke:#FFFFFF;stroke-width:1.4173;stroke-miterlimit:10;stroke-dasharray:5.5252,5.5252;}
	.st40{fill:none;stroke:#FFFFFF;stroke-width:0.5497;stroke-miterlimit:10;}
	.st41{fill:none;stroke:#FFFFFF;stroke-width:1.4173;stroke-miterlimit:10;stroke-dasharray:5.1901,5.1901;}
	.st42{fill:#F2F2F2;}
	.st43{fill:none;stroke:#58595B;stroke-width:0.677;stroke-miterlimit:10;}
	.st44{fill:none;stroke:#58595B;stroke-width:0.9249;stroke-miterlimit:10;}
	.st45{fill:none;stroke:#333333;stroke-width:0.4133;stroke-miterlimit:10;}
	.st46{fill:#395C9E;}
	.st47{fill:#E54E40;}
	.st48{opacity:0.5;fill:#F88D2B;}
	.st49{clip-path:url(#SVGID_100_);fill:#171717;}
	.st50{clip-path:url(#SVGID_106_);}
	.st51{fill:#4F231C;}
	.st52{fill:#472214;}
	.st53{clip-path:url(#SVGID_108_);}
	.st54{fill:#150000;}
	.st55{fill:#280700;}
	.st56{fill:#1A0000;}
	.st57{clip-path:url(#SVGID_110_);}
	.st58{clip-path:url(#SVGID_112_);}
	.st59{clip-path:url(#SVGID_114_);}
	.st60{clip-path:url(#SVGID_116_);}
	.st61{clip-path:url(#SVGID_118_);}
	.st62{clip-path:url(#SVGID_120_);}
	.st63{clip-path:url(#SVGID_122_);}
	.st64{clip-path:url(#SVGID_124_);}
	.st65{clip-path:url(#SVGID_126_);}
	.st66{clip-path:url(#SVGID_128_);}
	.st67{clip-path:url(#SVGID_130_);}
	.st68{clip-path:url(#SVGID_132_);}
	.st69{clip-path:url(#SVGID_134_);}
</style>
<g>
	<defs>
		<rect id="SVGID_65_" x="-4.3" y="-5.7" width="28.4" height="28.4"/>
	</defs>
	<clipPath id="SVGID_2_">
		<use xlink:href="#SVGID_65_"  style="overflow:visible;"/>
	</clipPath>
	<g style="clip-path:url(#SVGID_2_);">
		<path class="st14" d="M10.1-0.1c0.1,0,0.2,0,0.3,0c1,0.1,1.8,0.4,2.6,1c1.1,0.8,1.7,1.9,2,3.2c0.5,2.8-1.3,5.4-3.9,6
			c-2.8,0.7-5.6-1-6.3-3.8C4,3.5,5.9,0.7,8.7,0.1C9,0,9.2,0,9.5-0.1c0,0,0.1,0,0.1,0C9.8-0.1,10-0.1,10.1-0.1z"/>
		<path class="st14" d="M9.9,24.8c-0.8,0-1.5,0-2.3-0.1c-0.7,0-1.4-0.1-2.1-0.2c-0.8-0.1-1.6-0.2-2.4-0.3c-0.6-0.1-1.2-0.3-1.8-0.5
			c-0.2-0.1-0.4-0.2-0.6-0.3c-0.1-0.1-0.2-0.1-0.3-0.2c-0.1-0.1-0.2-0.2-0.1-0.4c0-0.5,0-1,0.1-1.5c0.2-2.1,0.8-4,2-5.8
			c0.7-1.2,1.6-2.2,2.8-3c1-0.7,2-1.2,3.2-1.4c0.9-0.2,1.7-0.2,2.6-0.1c1.4,0.2,2.7,0.7,3.9,1.6c1.1,0.8,2,1.8,2.8,3
			c0.8,1.3,1.4,2.7,1.7,4.2c0.2,0.8,0.3,1.6,0.3,2.4c0,0.3,0,0.5,0,0.8c0,0.1,0,0.2-0.1,0.3c-0.1,0.1-0.2,0.2-0.3,0.2
			c-0.2,0.2-0.5,0.3-0.8,0.4c-0.6,0.2-1.2,0.3-1.8,0.5c-0.7,0.1-1.4,0.2-2.2,0.3c-0.7,0.1-1.4,0.1-2.1,0.2
			C11.5,24.8,10.7,24.8,9.9,24.8z"/>
	</g>
</g>
</svg>
