<?xml version="1.0" encoding="utf-8"?>
<!-- Generator: Adobe Illustrator 22.0.0, SVG Export Plug-In . SVG Version: 6.00 Build 0)  -->
<svg version="1.1" id="Layer_1" xmlns="http://www.w3.org/2000/svg" xmlns:xlink="http://www.w3.org/1999/xlink" x="0px" y="0px"
	 viewBox="0 0 20 22.8" style="enable-background:new 0 0 20 22.8;" xml:space="preserve">
<style type="text/css">
	.st0{fill:none;stroke:#58595B;stroke-width:1.4173;stroke-miterlimit:10;}
	.st1{fill:#8F653A;}
	.st2{clip-path:url(#SVGID_4_);}
	.st3{fill:none;}
	.st4{opacity:0.2;fill:#381B12;}
	.st5{opacity:0.5;fill:#4F231C;}
	.st6{opacity:0.2;fill:#472214;}
	.st7{opacity:0.2;}
	.st8{fill:#AF0061;}
	.st9{fill:#E6E6E6;}
	.st10{opacity:0.65;}
	.st11{fill:#AF0061;stroke:#FFFFFF;stroke-miterlimit:10;}
	.st12{fill:#FFFFFF;}
	.st13{fill:#F88D2B;}
	.st14{fill:#381B12;}
	.st15{fill:none;stroke:#58595B;stroke-miterlimit:10;}
	.st16{fill:none;stroke:#58595B;stroke-width:0.8889;stroke-miterlimit:10;}
	.st17{fill:#5F73B6;}
	.st18{fill:#FFFFFF;stroke:#FFFFFF;stroke-miterlimit:10;}
	.st19{fill:none;stroke:#FFFFFF;stroke-miterlimit:10;}
	.st20{fill:none;stroke:#333333;stroke-width:0.9921;stroke-miterlimit:10;}
	.st21{fill:none;stroke:#FFFFFF;stroke-width:0.8892;stroke-miterlimit:10;}
	.st22{opacity:0.95;}
	.st23{fill:none;stroke:#FFFFFF;stroke-width:0.9921;stroke-miterlimit:10;}
	.st24{clip-path:url(#SVGID_66_);}
	.st25{fill:#EFEFF0;}
	.st26{fill:#808080;}
	.st27{clip-path:url(#SVGID_74_);}
	.st28{fill:#F7F7F7;}
	.st29{fill:#325A9B;}
	.st30{clip-path:url(#SVGID_76_);}
	.st31{clip-path:url(#SVGID_78_);}
	.st32{clip-path:url(#SVGID_80_);}
	.st33{opacity:0.2;fill:#AF0061;}
	.st34{opacity:0.2;fill:#F88D2B;}
	.st35{clip-path:url(#SVGID_90_);}
	.st36{opacity:0.8;}
	.st37{fill:none;stroke:#FFFFFF;stroke-width:1.4173;stroke-miterlimit:10;}
	.st38{fill:none;stroke:#FFFFFF;stroke-width:1.4173;stroke-miterlimit:10;stroke-dasharray:5.7578,5.7578;}
	.st39{fill:none;stroke:#FFFFFF;stroke-width:1.4173;stroke-miterlimit:10;stroke-dasharray:5.5252,5.5252;}
	.st40{fill:none;stroke:#FFFFFF;stroke-width:0.5497;stroke-miterlimit:10;}
	.st41{fill:none;stroke:#FFFFFF;stroke-width:1.4173;stroke-miterlimit:10;stroke-dasharray:5.1901,5.1901;}
	.st42{fill:#F2F2F2;}
	.st43{fill:none;stroke:#58595B;stroke-width:0.677;stroke-miterlimit:10;}
	.st44{fill:none;stroke:#58595B;stroke-width:0.9249;stroke-miterlimit:10;}
	.st45{fill:none;stroke:#333333;stroke-width:0.4133;stroke-miterlimit:10;}
	.st46{fill:#395C9E;}
	.st47{fill:#E54E40;}
	.st48{opacity:0.5;fill:#F88D2B;}
	.st49{clip-path:url(#SVGID_100_);fill:#171717;}
	.st50{clip-path:url(#SVGID_106_);}
	.st51{fill:#4F231C;}
	.st52{fill:#472214;}
	.st53{clip-path:url(#SVGID_108_);}
	.st54{fill:#150000;}
	.st55{fill:#280700;}
	.st56{fill:#1A0000;}
	.st57{clip-path:url(#SVGID_110_);}
	.st58{clip-path:url(#SVGID_112_);}
	.st59{clip-path:url(#SVGID_114_);}
	.st60{clip-path:url(#SVGID_116_);}
	.st61{clip-path:url(#SVGID_118_);}
	.st62{clip-path:url(#SVGID_120_);}
	.st63{clip-path:url(#SVGID_122_);}
	.st64{clip-path:url(#SVGID_124_);}
	.st65{clip-path:url(#SVGID_126_);}
	.st66{clip-path:url(#SVGID_128_);}
	.st67{clip-path:url(#SVGID_130_);}
	.st68{clip-path:url(#SVGID_132_);}
	.st69{clip-path:url(#SVGID_134_);}
</style>
<g>
	<path class="st14" d="M14.8,0c0.4,0.2,0.5,0.5,0.5,1c0,0.6,0,1.1,0,1.8c0.9,0,1.8,0,2.7,0c1.4,0,2.1,0.7,2.1,2.1c0,0.5,0,1,0,1.5
		c-6.7,0-13.3,0-20,0C0,5.6,0,4.9,0,4.3c0.1-0.9,0.9-1.5,1.8-1.5c0.9,0,1.9,0,2.8,0c0,0,0,0,0.1-0.1c0-0.5,0-1.1,0-1.7
		c0-0.4,0.1-0.7,0.5-1c0.2,0,0.3,0,0.5,0c0.4,0.2,0.5,0.5,0.5,1c0,0.6,0,1.2,0,1.7c2.6,0,5.2,0,7.7,0c0-0.6,0-1.2,0-1.7
		c0-0.4,0.1-0.7,0.5-1C14.5,0,14.6,0,14.8,0z M4.8,3.4C4.1,3.9,4,4.5,4.2,5.1C4.4,5.6,5,6,5.5,5.9c0.6,0,1.1-0.5,1.3-1.1
		c0.1-0.5-0.1-1-0.7-1.4c0,0.4,0,0.7,0,1.1c0,0.4-0.3,0.7-0.7,0.7C5,5.2,4.8,5,4.8,4.5C4.8,4.2,4.8,3.8,4.8,3.4z M15.2,3.4
		c0,0.4,0,0.8,0,1.1c0,0.4-0.2,0.7-0.7,0.7c-0.5,0-0.7-0.3-0.7-0.7c0-0.3,0-0.7,0-1.1c-0.6,0.5-0.8,1-0.6,1.6
		c0.2,0.6,0.7,0.9,1.3,0.9c0.6,0,1.1-0.4,1.3-1C16.1,4.4,15.9,3.9,15.2,3.4z"/>
	<path class="st14" d="M0,7.3c6.7,0,13.3,0,20,0c0,0.2,0,0.4,0,0.6c0,4.2,0,8.5,0,12.7c0,1.4-0.7,2.1-2.1,2.1c-5.3,0-10.5,0-15.8,0
		C0.7,22.8,0,22,0,20.7c0-4.2,0-8.5,0-12.7C0,7.7,0,7.6,0,7.3z M1.4,12.3c1.2,0,2.4,0,3.6,0C5,11,5,9.8,5,8.7c-1.2,0-2.4,0-3.6,0
		C1.4,9.9,1.4,11,1.4,12.3z M5.9,12.3c1.2,0,2.4,0,3.6,0c0-1.2,0-2.4,0-3.6c-1.2,0-2.4,0-3.6,0C5.9,9.9,5.9,11,5.9,12.3z M10.5,8.7
		c0,1.2,0,2.4,0,3.6c1.2,0,2.4,0,3.6,0c0-1.2,0-2.4,0-3.6C12.9,8.7,11.7,8.7,10.5,8.7z M18.6,8.7c-1.2,0-2.4,0-3.6,0
		c0,1.2,0,2.4,0,3.6c1.2,0,2.4,0,3.6,0C18.6,11,18.6,9.9,18.6,8.7z M1.4,13.2c0,1.2,0,2.4,0,3.6c1.2,0,2.4,0,3.6,0
		c0-1.2,0-2.4,0-3.6C3.8,13.2,2.6,13.2,1.4,13.2z M9.5,16.8c0-1.2,0-2.4,0-3.6c-1.2,0-2.4,0-3.6,0c0,1.2,0,2.4,0,3.6
		C7.1,16.8,8.3,16.8,9.5,16.8z M10.5,16.8c1.2,0,2.4,0,3.6,0c0-1.2,0-2.4,0-3.6c-1.2,0-2.4,0-3.6,0C10.5,14.4,10.5,15.6,10.5,16.8z
		 M18.6,16.8c0-1.2,0-2.4,0-3.6c-1.2,0-2.4,0-3.6,0c0,1.2,0,2.4,0,3.6C16.2,16.8,17.4,16.8,18.6,16.8z M1.4,17.8c0,1.2,0,2.4,0,3.6
		c1.2,0,2.4,0,3.6,0c0-1.2,0-2.4,0-3.6C3.8,17.8,2.6,17.8,1.4,17.8z M6,17.8c0,1.2,0,2.4,0,3.6c1.2,0,2.4,0,3.6,0c0-1.2,0-2.4,0-3.6
		C8.3,17.8,7.2,17.8,6,17.8z M14.1,17.8c-1.2,0-2.4,0-3.6,0c0,1.2,0,2.4,0,3.6c1.2,0,2.4,0,3.6,0C14.1,20.1,14.1,19,14.1,17.8z
		 M15,21.4c1.2,0,2.4,0,3.6,0c0-1.2,0-2.4,0-3.6c-1.2,0-2.4,0-3.6,0C15,19,15,20.1,15,21.4z"/>
</g>
</svg>
